<svg enable-background="new 0 0 16 16" version="1.1" viewBox="0 0 16 16" xmlns="http://www.w3.org/2000/svg">
 <style type="text/css">.st0{fill:#8500D3;}
	.st1{fill:#FFFFFF;}</style>
 <path class="st0" d="m8 0c4.4 0 8 3.6 8 8s-3.6 8-8 8-8-3.6-8-8 3.6-8 8-8z"/>
 <path class="st1" d="m2.3 8.3c-.0179-1.085.4508-2.294 1.473-2.792.7627-.3335 1.682-.2596 2.419.1096.5941.3071 1.044.9121 1.108 1.583h-1.1c-.1825-.5129-.6682-.9122-1.226-.8988-.5257-.03446-1.067.2856-1.221.8035-.3163.7015-.3399 1.537-.07883 2.259.2828.587.6516.7429 1.102.805.3873.05331.8109-.1456 1.099-.4101.1787-.1642.2925-.5059.3114-.6581.3998-.0009332.8298-1.5e-6 1.213 0-.152.8436-.7168 1.662-1.537 1.968-.9716.3249-2.122.05843-2.809-.7156-.5257-.5424-.7607-1.308-.7537-2.053zm9.6-2.9h1.7v5.6h-1.1v-4.8l-1.1 4.8h-1.1l-1-4.7v4.7h-1.1v-5.6h1.7l1 4.4z"/>
</svg>
